<svg xmlns="http://www.w3.org/2000/svg" width="768" height="69" fill="none"><ellipse cx="655.854" cy="63.761" fill="#F8D24E" rx="4.005" ry="3.988"/><ellipse cx="663.865" cy="58.776" fill="#F8D24E" rx="4.005" ry="3.988"/><ellipse cx="673.877" cy="52.795" fill="#F8D24E" rx="4.005" ry="3.988"/><ellipse cx="681.888" cy="47.81" fill="#F8D24E" rx="4.005" ry="3.988"/><ellipse cx="676.881" cy="61.767" fill="#F8D24E" rx="4.005" ry="3.988"/><ellipse cx="684.892" cy="56.783" fill="#F8D24E" rx="4.005" ry="3.988"/><ellipse cx="694.905" cy="50.801" fill="#F8D24E" rx="4.005" ry="3.988"/><ellipse cx="702.915" cy="45.816" fill="#F8D24E" rx="4.005" ry="3.988"/><ellipse cx="694.905" cy="59.773" fill="#F8D24E" rx="4.005" ry="3.988"/><ellipse cx="702.915" cy="54.788" fill="#F8D24E" rx="4.005" ry="3.988"/><ellipse cx="712.928" cy="48.806" fill="#F8D24E" rx="4.005" ry="3.988"/><ellipse cx="720.939" cy="43.822" fill="#F8D24E" rx="4.005" ry="3.988"/><ellipse cx="712.928" cy="56.783" fill="#F8D24E" rx="4.005" ry="3.988"/><ellipse cx="720.939" cy="51.798" fill="#F8D24E" rx="4.005" ry="3.988"/><ellipse cx="730.952" cy="45.816" fill="#F8D24E" rx="4.005" ry="3.988"/><ellipse cx="738.962" cy="40.831" fill="#F8D24E" rx="4.005" ry="3.988"/><ellipse cx="717.935" cy="63.761" fill="#F8D24E" rx="4.005" ry="3.988"/><ellipse cx="725.945" cy="58.776" fill="#F8D24E" rx="4.005" ry="3.988"/><ellipse cx="736.96" cy="64.758" fill="#F8D24E" rx="4.005" ry="3.988"/><ellipse cx="735.958" cy="52.795" fill="#F8D24E" rx="4.005" ry="3.988"/><ellipse cx="746.972" cy="58.776" fill="#F8D24E" rx="4.005" ry="3.988"/><ellipse cx="755.984" cy="64.758" fill="#F8D24E" rx="4.005" ry="3.988"/><ellipse cx="743.969" cy="47.81" fill="#F8D24E" rx="4.005" ry="3.988"/><ellipse cx="755.984" cy="53.792" fill="#F8D24E" rx="4.005" ry="3.988"/><ellipse cx="763.995" cy="59.774" fill="#F8D24E" rx="4.005" ry="3.988"/><ellipse cx="617.805" cy="21.888" fill="#F8D24E" rx="4.005" ry="3.988"/><ellipse cx="625.815" cy="16.903" fill="#F8D24E" rx="4.005" ry="3.988"/><ellipse cx="635.828" cy="10.921" fill="#F8D24E" rx="4.005" ry="3.988"/><ellipse cx="643.838" cy="5.937" fill="#F8D24E" rx="4.005" ry="3.988"/><ellipse cx="601.784" cy="20.891" fill="#F8D24E" rx="4.005" ry="3.988"/><ellipse cx="609.794" cy="15.906" fill="#F8D24E" rx="4.005" ry="3.988"/><ellipse cx="619.807" cy="9.924" fill="#F8D24E" rx="4.005" ry="3.988"/><ellipse cx="627.818" cy="4.94" fill="#F8D24E" rx="4.005" ry="3.988"/><ellipse cx="636.829" cy="63.761" fill="#F8D24E" rx="4.005" ry="3.988"/><ellipse cx="644.84" cy="58.776" fill="#F8D24E" rx="4.005" ry="3.988"/><ellipse cx="654.853" cy="52.795" fill="#F8D24E" rx="4.005" ry="3.988"/><ellipse cx="662.863" cy="47.81" fill="#F8D24E" rx="4.005" ry="3.988"/><ellipse cx="626.816" cy="60.77" fill="#F8D24E" rx="4.005" ry="3.988"/><ellipse cx="634.826" cy="55.785" fill="#F8D24E" rx="4.005" ry="3.988"/><ellipse cx="644.84" cy="49.804" fill="#F8D24E" rx="4.005" ry="3.988"/><ellipse cx="652.85" cy="44.819" fill="#F8D24E" rx="4.005" ry="3.988"/><ellipse cx="630.822" cy="46.813" fill="#F8D24E" rx="4.005" ry="3.988"/><ellipse cx="638.832" cy="41.828" fill="#F8D24E" rx="4.005" ry="3.988"/><ellipse cx="648.845" cy="35.846" fill="#F8D24E" rx="4.005" ry="3.988"/><ellipse cx="656.855" cy="30.861" fill="#F8D24E" rx="4.005" ry="3.988"/><ellipse cx="630.822" cy="23.882" fill="#F8D24E" rx="4.005" ry="3.988"/><ellipse cx="638.832" cy="18.897" fill="#F8D24E" rx="4.005" ry="3.988"/><ellipse cx="648.845" cy="12.915" fill="#F8D24E" rx="4.005" ry="3.988"/><ellipse cx="656.855" cy="7.931" fill="#F8D24E" rx="4.005" ry="3.988"/><ellipse cx="628.819" cy="36.843" fill="#F8D24E" rx="4.005" ry="3.988"/><ellipse cx="636.829" cy="31.858" fill="#F8D24E" rx="4.005" ry="3.988"/><ellipse cx="646.842" cy="25.876" fill="#F8D24E" rx="4.005" ry="3.988"/><ellipse cx="654.853" cy="20.891" fill="#F8D24E" rx="4.005" ry="3.988"/><ellipse cx="589.267" cy="17.9" fill="#F8D24E" rx="3.505" ry="3.988"/><ellipse cx="597.278" cy="12.915" fill="#F8D24E" rx="3.505" ry="3.988"/><ellipse cx="607.291" cy="6.933" fill="#F8D24E" rx="3.505" ry="3.988"/><path fill="#F8D24E" d="M606.289 21.888c1.936 0 3.505-1.785 3.505-3.988 0-2.202-1.569-3.988-3.505-3.988-1.935 0-3.504 1.786-3.504 3.988 0 2.203 1.569 3.988 3.504 3.988Z"/><ellipse cx="4.005" cy="59" fill="#F8D24E" rx="4.005" ry="4"/><ellipse cx="12.015" cy="54" fill="#F8D24E" rx="4.005" ry="4"/><ellipse cx="22.029" cy="48" fill="#F8D24E" rx="4.005" ry="4"/><ellipse cx="30.039" cy="43" fill="#F8D24E" rx="4.005" ry="4"/><ellipse cx="52.068" cy="61" fill="#F8D24E" rx="4.005" ry="4"/><ellipse cx="60.078" cy="56" fill="#F8D24E" rx="4.005" ry="4"/><ellipse cx="70.091" cy="50" fill="#F8D24E" rx="4.005" ry="4"/><ellipse cx="78.102" cy="45" fill="#F8D24E" rx="4.005" ry="4"/><ellipse cx="70.592" cy="58" fill="#F8D24E" rx="3.505" ry="4"/><ellipse cx="78.602" cy="53" fill="#F8D24E" rx="3.505" ry="4"/><ellipse cx="87.614" cy="48" fill="#F8D24E" rx="3.505" ry="4"/><ellipse cx="96.626" cy="43" fill="#F8D24E" rx="3.505" ry="4"/><ellipse cx="106.639" cy="35" fill="#F8D24E" rx="3.505" ry="4"/><ellipse cx="85.612" cy="39" fill="#F8D24E" rx="3.505" ry="4"/><ellipse cx="34.044" cy="61" fill="#F8D24E" rx="4.005" ry="4"/><ellipse cx="42.054" cy="56" fill="#F8D24E" rx="4.005" ry="4"/><ellipse cx="52.068" cy="50" fill="#F8D24E" rx="4.005" ry="4"/><ellipse cx="60.078" cy="45" fill="#F8D24E" rx="4.005" ry="4"/><ellipse cx="18.023" cy="60" fill="#F8D24E" rx="4.005" ry="4"/><ellipse cx="26.034" cy="55" fill="#F8D24E" rx="4.005" ry="4"/><ellipse cx="36.047" cy="49" fill="#F8D24E" rx="4.005" ry="4"/><ellipse cx="44.057" cy="44" fill="#F8D24E" rx="4.005" ry="4"/></svg>