<svg xmlns="http://www.w3.org/2000/svg" width="320" height="50" fill="none"><ellipse cx="241.993" cy="46.276" fill="#F8D24E" rx="2.6" ry="2.779"/><ellipse cx="247.628" cy="42.571" fill="#F8D24E" rx="2.6" ry="2.779"/><ellipse cx="254.126" cy="38.403" fill="#F8D24E" rx="2.6" ry="2.779"/><ellipse cx="260.195" cy="34.698" fill="#F8D24E" rx="2.6" ry="2.779"/><ellipse cx="256.726" cy="44.423" fill="#F8D24E" rx="2.6" ry="2.779"/><ellipse cx="262.361" cy="40.718" fill="#F8D24E" rx="2.6" ry="2.779"/><ellipse cx="268.86" cy="36.55" fill="#F8D24E" rx="2.6" ry="2.779"/><ellipse cx="274.929" cy="32.846" fill="#F8D24E" rx="2.6" ry="2.779"/><ellipse cx="269.296" cy="43.034" fill="#F8D24E" rx="2.6" ry="2.779"/><ellipse cx="274.93" cy="39.329" fill="#F8D24E" rx="2.6" ry="2.779"/><ellipse cx="281.43" cy="35.161" fill="#F8D24E" rx="2.6" ry="2.779"/><ellipse cx="287.496" cy="31.457" fill="#F8D24E" rx="2.6" ry="2.779"/><ellipse cx="281.428" cy="41.182" fill="#F8D24E" rx="2.6" ry="2.779"/><ellipse cx="287.061" cy="37.477" fill="#F8D24E" rx="2.6" ry="2.779"/><ellipse cx="293.561" cy="33.309" fill="#F8D24E" rx="2.6" ry="2.779"/><ellipse cx="299.629" cy="29.604" fill="#F8D24E" rx="2.6" ry="2.779"/><ellipse cx="285.331" cy="46.276" fill="#F8D24E" rx="2.6" ry="2.779"/><ellipse cx="290.965" cy="42.571" fill="#F8D24E" rx="2.6" ry="2.779"/><ellipse cx="298.765" cy="46.739" fill="#F8D24E" rx="2.6" ry="2.779"/><ellipse cx="297.465" cy="38.403" fill="#F8D24E" rx="2.6" ry="2.779"/><ellipse cx="305.266" cy="42.571" fill="#F8D24E" rx="2.6" ry="2.779"/><ellipse cx="311.334" cy="46.739" fill="#F8D24E" rx="2.6" ry="2.779"/><ellipse cx="303.533" cy="34.698" fill="#F8D24E" rx="2.6" ry="2.779"/><ellipse cx="311.334" cy="38.865" fill="#F8D24E" rx="2.6" ry="2.779"/><ellipse cx="317.401" cy="43.034" fill="#F8D24E" rx="2.6" ry="2.779"/><ellipse cx="215.559" cy="15.711" fill="#F8D24E" rx="2.6" ry="2.779"/><ellipse cx="221.192" cy="12.006" fill="#F8D24E" rx="2.6" ry="2.779"/><ellipse cx="227.694" cy="7.838" fill="#F8D24E" rx="2.6" ry="2.779"/><ellipse cx="233.759" cy="4.133" fill="#F8D24E" rx="2.6" ry="2.779"/><ellipse cx="204.724" cy="15.247" fill="#F8D24E" rx="2.6" ry="2.779"/><ellipse cx="210.357" cy="11.542" fill="#F8D24E" rx="2.6" ry="2.779"/><ellipse cx="216.857" cy="7.375" fill="#F8D24E" rx="2.6" ry="2.779"/><ellipse cx="222.924" cy="3.67" fill="#F8D24E" rx="2.6" ry="2.779"/><ellipse cx="228.992" cy="46.276" fill="#F8D24E" rx="2.6" ry="2.779"/><ellipse cx="234.625" cy="42.571" fill="#F8D24E" rx="2.6" ry="2.779"/><ellipse cx="241.125" cy="38.403" fill="#F8D24E" rx="2.6" ry="2.779"/><ellipse cx="247.193" cy="34.698" fill="#F8D24E" rx="2.6" ry="2.779"/><ellipse cx="222.058" cy="43.498" fill="#F8D24E" rx="2.6" ry="2.779"/><ellipse cx="227.692" cy="39.793" fill="#F8D24E" rx="2.6" ry="2.779"/><ellipse cx="234.192" cy="35.624" fill="#F8D24E" rx="2.6" ry="2.779"/><ellipse cx="240.259" cy="31.92" fill="#F8D24E" rx="2.6" ry="2.779"/><ellipse cx="224.659" cy="33.772" fill="#F8D24E" rx="2.6" ry="2.779"/><ellipse cx="230.292" cy="30.067" fill="#F8D24E" rx="2.6" ry="2.779"/><ellipse cx="236.794" cy="25.899" fill="#F8D24E" rx="2.6" ry="2.779"/><ellipse cx="242.86" cy="22.194" fill="#F8D24E" rx="2.6" ry="2.779"/><ellipse cx="224.659" cy="17.563" fill="#F8D24E" rx="2.6" ry="2.779"/><ellipse cx="230.292" cy="13.858" fill="#F8D24E" rx="2.6" ry="2.779"/><ellipse cx="236.794" cy="9.69" fill="#F8D24E" rx="2.6" ry="2.779"/><ellipse cx="242.86" cy="5.985" fill="#F8D24E" rx="2.6" ry="2.779"/><ellipse cx="223.358" cy="26.363" fill="#F8D24E" rx="2.6" ry="2.779"/><ellipse cx="228.993" cy="22.657" fill="#F8D24E" rx="2.6" ry="2.779"/><ellipse cx="235.492" cy="18.49" fill="#F8D24E" rx="2.6" ry="2.779"/><ellipse cx="241.559" cy="14.785" fill="#F8D24E" rx="2.6" ry="2.779"/><ellipse cx="196.056" cy="12.932" fill="#F8D24E" rx="2.6" ry="2.779"/><ellipse cx="201.691" cy="9.227" fill="#F8D24E" rx="2.6" ry="2.779"/><ellipse cx="208.191" cy="5.059" fill="#F8D24E" rx="2.6" ry="2.779"/><path fill="#F8D24E" d="M207.757 15.71c1.436 0 2.601-1.244 2.601-2.778 0-1.535-1.165-2.779-2.601-2.779s-2.6 1.244-2.6 2.779c0 1.534 1.164 2.778 2.6 2.778Z"/><ellipse fill="#F8D24E" rx="2.643" ry="2.816" transform="matrix(.9869 -.16168 .14201 .98991 85.581 33.982)"/><ellipse fill="#F8D24E" rx="2.643" ry="2.816" transform="matrix(.9869 -.16168 .14201 .98991 90.7 29.34)"/><ellipse fill="#F8D24E" rx="2.643" ry="2.816" transform="matrix(.9869 -.16168 .14201 .98991 96.62 24.09)"/><ellipse fill="#F8D24E" rx="2.643" ry="2.816" transform="matrix(.9869 -.16168 .14201 .98991 102.173 19.377)"/><ellipse cx="2.72" cy="33.551" fill="#F8D24E" rx="2.72" ry="2.82"/><ellipse cx="8.611" cy="29.792" fill="#F8D24E" rx="2.72" ry="2.82"/><ellipse cx="15.413" cy="25.562" fill="#F8D24E" rx="2.72" ry="2.82"/><ellipse cx="21.758" cy="21.802" fill="#F8D24E" rx="2.72" ry="2.82"/><ellipse cx="5.44" cy="40.6" fill="#F8D24E" rx="2.72" ry="2.82"/><ellipse cx="11.333" cy="36.841" fill="#F8D24E" rx="2.72" ry="2.82"/><ellipse cx="18.134" cy="32.611" fill="#F8D24E" rx="2.72" ry="2.82"/><ellipse cx="24.479" cy="28.851" fill="#F8D24E" rx="2.72" ry="2.82"/><ellipse cx="12.238" cy="44.36" fill="#F8D24E" rx="2.72" ry="2.82"/><ellipse cx="18.132" cy="40.6" fill="#F8D24E" rx="2.72" ry="2.82"/><ellipse cx="24.931" cy="36.371" fill="#F8D24E" rx="2.72" ry="2.82"/><ellipse cx="31.276" cy="32.611" fill="#F8D24E" rx="2.72" ry="2.82"/><ellipse cx="19.943" cy="46.711" fill="#F8D24E" rx="2.72" ry="2.82"/><ellipse cx="25.836" cy="42.95" fill="#F8D24E" rx="2.72" ry="2.82"/><ellipse cx="32.638" cy="38.721" fill="#F8D24E" rx="2.72" ry="2.82"/><ellipse cx="38.981" cy="34.961" fill="#F8D24E" rx="2.72" ry="2.82"/><ellipse cx="29.917" cy="47.181" fill="#F8D24E" rx="2.72" ry="2.82"/><ellipse cx="35.81" cy="43.421" fill="#F8D24E" rx="2.72" ry="2.82"/><ellipse cx="42.61" cy="39.191" fill="#F8D24E" rx="2.72" ry="2.82"/><ellipse cx="48.955" cy="35.431" fill="#F8D24E" rx="2.72" ry="2.82"/><ellipse cx="41.704" cy="47.18" fill="#F8D24E" rx="2.72" ry="2.82"/><ellipse cx="47.596" cy="43.42" fill="#F8D24E" rx="2.72" ry="2.82"/><ellipse cx="54.396" cy="39.191" fill="#F8D24E" rx="2.72" ry="2.82"/><ellipse cx="60.742" cy="35.431" fill="#F8D24E" rx="2.72" ry="2.82"/><ellipse cx="51.674" cy="46.71" fill="#F8D24E" rx="2.72" ry="2.82"/><ellipse cx="57.566" cy="42.95" fill="#F8D24E" rx="2.72" ry="2.82"/><ellipse cx="64.367" cy="38.721" fill="#F8D24E" rx="2.72" ry="2.82"/><ellipse cx="70.712" cy="34.961" fill="#F8D24E" rx="2.72" ry="2.82"/><ellipse cx="63.006" cy="46.24" fill="#F8D24E" rx="2.72" ry="2.82"/><ellipse cx="68.898" cy="42.48" fill="#F8D24E" rx="2.72" ry="2.82"/><ellipse cx="75.699" cy="38.251" fill="#F8D24E" rx="2.72" ry="2.82"/><ellipse cx="82.044" cy="34.491" fill="#F8D24E" rx="2.72" ry="2.82"/><ellipse cx="73.432" cy="34.021" fill="#F8D24E" rx="2.72" ry="2.82"/><ellipse cx="79.324" cy="30.261" fill="#F8D24E" rx="2.72" ry="2.82"/><ellipse cx="86.124" cy="26.032" fill="#F8D24E" rx="2.72" ry="2.82"/><ellipse cx="92.47" cy="22.272" fill="#F8D24E" rx="2.72" ry="2.82"/></svg>