<svg xmlns="http://www.w3.org/2000/svg" width="1200" height="384" fill="none"><ellipse cx="447.193" cy="32.755" fill="#F8D24E" rx="5.858" ry="6.244"/><ellipse cx="459.886" cy="24.429" fill="#F8D24E" rx="5.858" ry="6.244"/><ellipse cx="474.532" cy="15.063" fill="#F8D24E" rx="5.858" ry="6.244"/><ellipse cx="488.202" cy="6.738" fill="#F8D24E" rx="5.858" ry="6.244"/><ellipse cx="428.641" cy="54.608" fill="#F8D24E" rx="5.858" ry="6.244"/><ellipse cx="441.335" cy="46.283" fill="#F8D24E" rx="5.858" ry="6.244"/><ellipse cx="455.98" cy="36.917" fill="#F8D24E" rx="5.858" ry="6.244"/><ellipse cx="469.65" cy="28.592" fill="#F8D24E" rx="5.858" ry="6.244"/><ellipse cx="400.325" cy="55.649" fill="#F8D24E" rx="5.858" ry="6.244"/><ellipse cx="413.019" cy="47.324" fill="#F8D24E" rx="5.858" ry="6.244"/><ellipse cx="427.665" cy="37.958" fill="#F8D24E" rx="5.858" ry="6.244"/><ellipse cx="441.335" cy="29.633" fill="#F8D24E" rx="5.858" ry="6.244"/><ellipse cx="384.703" cy="79.584" fill="#F8D24E" rx="5.858" ry="6.244"/><ellipse cx="397.396" cy="71.259" fill="#F8D24E" rx="5.858" ry="6.244"/><ellipse cx="412.042" cy="61.893" fill="#F8D24E" rx="5.858" ry="6.244"/><ellipse cx="425.712" cy="53.568" fill="#F8D24E" rx="5.858" ry="6.244"/><ellipse cx="372.986" cy="101.438" fill="#F8D24E" rx="5.858" ry="6.244"/><ellipse cx="385.679" cy="93.112" fill="#F8D24E" rx="5.858" ry="6.244"/><ellipse cx="400.325" cy="83.746" fill="#F8D24E" rx="5.858" ry="6.244"/><ellipse cx="413.995" cy="75.421" fill="#F8D24E" rx="5.858" ry="6.244"/><ellipse fill="#F8D24E" rx="5.858" ry="6.244" transform="matrix(1 .00156 -.00137 1 364.208 123.3)"/><ellipse fill="#F8D24E" rx="5.858" ry="6.244" transform="matrix(1 .00156 -.00137 1 376.912 114.995)"/><ellipse fill="#F8D24E" rx="5.858" ry="6.244" transform="matrix(1 .00156 -.00137 1 391.572 105.652)"/><ellipse fill="#F8D24E" rx="5.858" ry="6.244" transform="matrix(1 .00156 -.00137 1 405.253 97.348)"/><ellipse fill="#F8D24E" rx="5.858" ry="6.244" transform="matrix(1 .00156 -.00137 1 240.228 160.806)"/><ellipse fill="#F8D24E" rx="5.858" ry="6.244" transform="matrix(1 .00156 -.00137 1 253.909 152.502)"/><ellipse fill="#F8D24E" rx="5.858" ry="6.244" transform="matrix(1 .00156 -.00137 1 325.151 132.666)"/><ellipse fill="#F8D24E" rx="5.858" ry="6.244" transform="matrix(1 .00156 -.00137 1 337.856 124.361)"/><ellipse fill="#F8D24E" rx="5.858" ry="6.244" transform="matrix(1 .00156 -.00137 1 352.514 115.018)"/><ellipse fill="#F8D24E" rx="5.858" ry="6.244" transform="matrix(1 .00156 -.00137 1 366.196 106.713)"/><ellipse cx="241.171" cy="142.023" fill="#F8D24E" rx="5.858" ry="6.244"/><ellipse cx="254.841" cy="133.698" fill="#F8D24E" rx="5.858" ry="6.244"/><ellipse cx="273.393" cy="124.332" fill="#F8D24E" rx="5.858" ry="6.244"/><ellipse cx="286.086" cy="116.007" fill="#F8D24E" rx="5.858" ry="6.244"/><ellipse cx="300.732" cy="106.64" fill="#F8D24E" rx="5.858" ry="6.244"/><ellipse cx="314.402" cy="98.315" fill="#F8D24E" rx="5.858" ry="6.244"/><ellipse cx="298.779" cy="136.819" fill="#F8D24E" rx="5.858" ry="6.244"/><ellipse cx="311.473" cy="128.494" fill="#F8D24E" rx="5.858" ry="6.244"/><ellipse cx="326.119" cy="119.129" fill="#F8D24E" rx="5.858" ry="6.244"/><ellipse cx="339.789" cy="110.803" fill="#F8D24E" rx="5.858" ry="6.244"/><ellipse cx="300.732" cy="120.169" fill="#F8D24E" rx="5.858" ry="6.244"/><ellipse cx="313.426" cy="111.844" fill="#F8D24E" rx="5.858" ry="6.244"/><ellipse cx="328.072" cy="102.478" fill="#F8D24E" rx="5.858" ry="6.244"/><ellipse cx="341.741" cy="94.153" fill="#F8D24E" rx="5.858" ry="6.244"/><ellipse cx="247.03" cy="126.413" fill="#F8D24E" rx="5.858" ry="6.244"/><ellipse cx="259.723" cy="118.088" fill="#F8D24E" rx="5.858" ry="6.244"/><ellipse cx="274.37" cy="108.722" fill="#F8D24E" rx="5.858" ry="6.244"/><ellipse cx="288.039" cy="100.397" fill="#F8D24E" rx="5.858" ry="6.244"/><ellipse cx="5.858" cy="358.478" fill="#F8D24E" rx="5.858" ry="6.244"/><ellipse cx="18.551" cy="350.153" fill="#F8D24E" rx="5.858" ry="6.244"/><ellipse cx="33.198" cy="340.787" fill="#F8D24E" rx="5.858" ry="6.244"/><ellipse cx="46.867" cy="332.462" fill="#F8D24E" rx="5.858" ry="6.244"/><ellipse cx="80.065" cy="361.6" fill="#F8D24E" rx="5.858" ry="6.244"/><ellipse cx="92.758" cy="353.275" fill="#F8D24E" rx="5.858" ry="6.244"/><ellipse cx="107.404" cy="343.909" fill="#F8D24E" rx="5.858" ry="6.244"/><ellipse cx="121.074" cy="335.584" fill="#F8D24E" rx="5.858" ry="6.244"/><ellipse cx="110.334" cy="357.438" fill="#F8D24E" rx="5.858" ry="6.244"/><ellipse cx="123.027" cy="349.112" fill="#F8D24E" rx="5.858" ry="6.244"/><ellipse cx="137.673" cy="339.746" fill="#F8D24E" rx="5.858" ry="6.244"/><ellipse cx="151.343" cy="331.421" fill="#F8D24E" rx="5.858" ry="6.244"/><ellipse cx="165.989" cy="318.933" fill="#F8D24E" rx="5.858" ry="6.244"/><ellipse cx="134.744" cy="326.218" fill="#F8D24E" rx="5.858" ry="6.244"/><ellipse cx="1024.25" cy="376.672" fill="#F8D24E" rx="5.858" ry="6.239"/><ellipse cx="1036.94" cy="368.353" fill="#F8D24E" rx="5.858" ry="6.239"/><ellipse cx="1051.59" cy="358.995" fill="#F8D24E" rx="5.858" ry="6.239"/><ellipse cx="1065.26" cy="350.677" fill="#F8D24E" rx="5.858" ry="6.239"/><ellipse cx="1057.44" cy="372.513" fill="#F8D24E" rx="5.858" ry="6.239"/><ellipse cx="1070.14" cy="364.194" fill="#F8D24E" rx="5.858" ry="6.239"/><ellipse cx="1084.78" cy="354.836" fill="#F8D24E" rx="5.858" ry="6.239"/><ellipse cx="1098.45" cy="346.518" fill="#F8D24E" rx="5.858" ry="6.239"/><ellipse cx="1085.76" cy="369.393" fill="#F8D24E" rx="5.858" ry="6.239"/><ellipse cx="1098.45" cy="361.075" fill="#F8D24E" rx="5.858" ry="6.239"/><ellipse cx="1113.1" cy="351.717" fill="#F8D24E" rx="5.858" ry="6.239"/><ellipse cx="1126.77" cy="343.398" fill="#F8D24E" rx="5.858" ry="6.239"/><ellipse cx="1113.1" cy="365.234" fill="#F8D24E" rx="5.858" ry="6.239"/><ellipse cx="1125.79" cy="356.916" fill="#F8D24E" rx="5.858" ry="6.239"/><ellipse cx="1140.44" cy="347.557" fill="#F8D24E" rx="5.858" ry="6.239"/><ellipse cx="1154.11" cy="339.239" fill="#F8D24E" rx="5.858" ry="6.239"/><ellipse cx="1121.89" cy="376.672" fill="#F8D24E" rx="5.858" ry="6.239"/><ellipse cx="1134.58" cy="368.353" fill="#F8D24E" rx="5.858" ry="6.239"/><ellipse cx="1152.16" cy="377.712" fill="#F8D24E" rx="5.858" ry="6.239"/><ellipse cx="1149.23" cy="358.995" fill="#F8D24E" rx="5.858" ry="6.239"/><ellipse cx="1166.8" cy="368.353" fill="#F8D24E" rx="5.858" ry="6.239"/><ellipse cx="1180.47" cy="377.712" fill="#F8D24E" rx="5.858" ry="6.239"/><ellipse cx="1162.9" cy="350.677" fill="#F8D24E" rx="5.858" ry="6.239"/><ellipse cx="1180.47" cy="360.035" fill="#F8D24E" rx="5.858" ry="6.239"/><ellipse cx="1194.14" cy="369.393" fill="#F8D24E" rx="5.858" ry="6.239"/><ellipse cx="964.687" cy="308.045" fill="#F8D24E" rx="5.858" ry="6.239"/><ellipse cx="977.38" cy="299.727" fill="#F8D24E" rx="5.858" ry="6.239"/><ellipse cx="992.026" cy="290.369" fill="#F8D24E" rx="5.858" ry="6.239"/><ellipse cx="1005.7" cy="282.05" fill="#F8D24E" rx="5.858" ry="6.239"/><ellipse cx="940.276" cy="307.005" fill="#F8D24E" rx="5.858" ry="6.239"/><ellipse cx="952.97" cy="298.687" fill="#F8D24E" rx="5.858" ry="6.239"/><ellipse cx="967.616" cy="289.329" fill="#F8D24E" rx="5.858" ry="6.239"/><ellipse cx="981.285" cy="281.01" fill="#F8D24E" rx="5.858" ry="6.239"/><ellipse cx="994.956" cy="376.672" fill="#F8D24E" rx="5.858" ry="6.239"/><ellipse cx="1007.65" cy="368.353" fill="#F8D24E" rx="5.858" ry="6.239"/><ellipse cx="1022.29" cy="358.995" fill="#F8D24E" rx="5.858" ry="6.239"/><ellipse cx="1035.96" cy="350.677" fill="#F8D24E" rx="5.858" ry="6.239"/><ellipse cx="979.333" cy="370.433" fill="#F8D24E" rx="5.858" ry="6.239"/><ellipse cx="992.026" cy="362.115" fill="#F8D24E" rx="5.858" ry="6.239"/><ellipse cx="1006.67" cy="352.756" fill="#F8D24E" rx="5.858" ry="6.239"/><ellipse cx="1020.34" cy="344.438" fill="#F8D24E" rx="5.858" ry="6.239"/><ellipse cx="985.191" cy="348.597" fill="#F8D24E" rx="5.858" ry="6.239"/><ellipse cx="997.885" cy="340.279" fill="#F8D24E" rx="5.858" ry="6.239"/><ellipse cx="1012.53" cy="330.921" fill="#F8D24E" rx="5.858" ry="6.239"/><ellipse cx="1026.2" cy="322.602" fill="#F8D24E" rx="5.858" ry="6.239"/><ellipse fill="#F8D24E" rx="5.867" ry="6.23" transform="matrix(.98693 -.16112 .14249 .9898 680.19 303.798)"/><ellipse fill="#F8D24E" rx="5.867" ry="6.23" transform="matrix(.98693 -.16112 .14249 .9898 691.553 293.528)"/><ellipse fill="#F8D24E" rx="5.867" ry="6.23" transform="matrix(.98693 -.16112 .14249 .9898 704.699 281.914)"/><ellipse fill="#F8D24E" rx="5.867" ry="6.23" transform="matrix(.98693 -.16112 .14249 .9898 717.027 271.486)"/><ellipse cx="985.191" cy="312.204" fill="#F8D24E" rx="5.858" ry="6.239"/><ellipse cx="997.885" cy="303.886" fill="#F8D24E" rx="5.858" ry="6.239"/><ellipse cx="1012.53" cy="294.528" fill="#F8D24E" rx="5.858" ry="6.239"/><ellipse cx="1026.2" cy="286.209" fill="#F8D24E" rx="5.858" ry="6.239"/><ellipse cx="982.262" cy="331.96" fill="#F8D24E" rx="5.858" ry="6.239"/><ellipse cx="994.956" cy="323.642" fill="#F8D24E" rx="5.858" ry="6.239"/><ellipse cx="1009.6" cy="314.284" fill="#F8D24E" rx="5.858" ry="6.239"/><ellipse cx="1023.27" cy="305.965" fill="#F8D24E" rx="5.858" ry="6.239"/><ellipse cx="920.749" cy="301.806" fill="#F8D24E" rx="5.858" ry="6.239"/><ellipse cx="933.442" cy="293.488" fill="#F8D24E" rx="5.858" ry="6.239"/><ellipse cx="948.088" cy="284.13" fill="#F8D24E" rx="5.858" ry="6.239"/><path fill="#F8D24E" d="M947.112 308.045c3.235 0 5.858-2.793 5.858-6.239 0-3.445-2.623-6.239-5.858-6.239-3.236 0-5.859 2.794-5.859 6.239 0 3.446 2.623 6.239 5.859 6.239Z"/><ellipse cx="52.726" cy="360.559" fill="#F8D24E" rx="5.858" ry="6.244"/><ellipse cx="65.419" cy="352.234" fill="#F8D24E" rx="5.858" ry="6.244"/><ellipse cx="80.065" cy="342.868" fill="#F8D24E" rx="5.858" ry="6.244"/><ellipse cx="93.735" cy="334.543" fill="#F8D24E" rx="5.858" ry="6.244"/><ellipse cx="28.316" cy="359.519" fill="#F8D24E" rx="5.858" ry="6.244"/><ellipse cx="41.009" cy="351.193" fill="#F8D24E" rx="5.858" ry="6.244"/><ellipse cx="55.655" cy="341.828" fill="#F8D24E" rx="5.858" ry="6.244"/><ellipse cx="69.324" cy="333.503" fill="#F8D24E" rx="5.858" ry="6.244"/><ellipse cx="447.193" cy="56.69" fill="#F8D24E" rx="5.858" ry="6.244"/><ellipse cx="459.886" cy="48.364" fill="#F8D24E" rx="5.858" ry="6.244"/><ellipse cx="474.532" cy="38.998" fill="#F8D24E" rx="5.858" ry="6.244"/><ellipse cx="488.202" cy="30.673" fill="#F8D24E" rx="5.858" ry="6.244"/><ellipse cx="445.24" cy="99.356" fill="#F8D24E" rx="5.858" ry="6.244"/><ellipse cx="457.933" cy="91.031" fill="#F8D24E" rx="5.858" ry="6.244"/><ellipse cx="472.58" cy="81.665" fill="#F8D24E" rx="5.858" ry="6.244"/><ellipse cx="486.249" cy="73.34" fill="#F8D24E" rx="5.858" ry="6.244"/><ellipse cx="448.169" cy="77.502" fill="#F8D24E" rx="5.858" ry="6.244"/><ellipse cx="460.862" cy="69.177" fill="#F8D24E" rx="5.858" ry="6.244"/><ellipse cx="475.509" cy="59.812" fill="#F8D24E" rx="5.858" ry="6.244"/><ellipse cx="489.178" cy="51.486" fill="#F8D24E" rx="5.858" ry="6.244"/><ellipse cx="446.216" cy="120.169" fill="#F8D24E" rx="5.858" ry="6.244"/><ellipse cx="458.91" cy="111.844" fill="#F8D24E" rx="5.858" ry="6.244"/><ellipse cx="473.556" cy="102.478" fill="#F8D24E" rx="5.858" ry="6.244"/><ellipse cx="487.225" cy="94.153" fill="#F8D24E" rx="5.858" ry="6.244"/><ellipse cx="452.075" cy="134.738" fill="#F8D24E" rx="5.858" ry="6.244"/><ellipse cx="464.768" cy="126.413" fill="#F8D24E" rx="5.858" ry="6.244"/><ellipse cx="479.414" cy="117.047" fill="#F8D24E" rx="5.858" ry="6.244"/><ellipse cx="493.084" cy="108.722" fill="#F8D24E" rx="5.858" ry="6.244"/><ellipse cx="464.768" cy="146.185" fill="#F8D24E" rx="5.858" ry="6.244"/><ellipse cx="477.461" cy="137.86" fill="#F8D24E" rx="5.858" ry="6.244"/><ellipse cx="492.107" cy="128.494" fill="#F8D24E" rx="5.858" ry="6.244"/><ellipse cx="505.777" cy="120.169" fill="#F8D24E" rx="5.858" ry="6.244"/><ellipse cx="481.367" cy="155.551" fill="#F8D24E" rx="5.858" ry="6.244"/><ellipse cx="494.06" cy="147.226" fill="#F8D24E" rx="5.858" ry="6.244"/><ellipse cx="508.706" cy="137.86" fill="#F8D24E" rx="5.858" ry="6.244"/><ellipse cx="522.376" cy="129.535" fill="#F8D24E" rx="5.858" ry="6.244"/><ellipse cx="500.895" cy="157.633" fill="#F8D24E" rx="5.858" ry="6.244"/><ellipse cx="513.588" cy="149.307" fill="#F8D24E" rx="5.858" ry="6.244"/><ellipse cx="528.234" cy="139.942" fill="#F8D24E" rx="5.858" ry="6.244"/><ellipse cx="541.904" cy="131.616" fill="#F8D24E" rx="5.858" ry="6.244"/><ellipse cx="520.423" cy="161.795" fill="#F8D24E" rx="5.858" ry="6.244"/><ellipse cx="533.117" cy="153.47" fill="#F8D24E" rx="5.858" ry="6.244"/><ellipse cx="547.763" cy="144.104" fill="#F8D24E" rx="5.858" ry="6.244"/><ellipse cx="561.433" cy="135.779" fill="#F8D24E" rx="5.858" ry="6.244"/><ellipse cx="515.542" cy="181.568" fill="#F8D24E" rx="5.858" ry="6.244"/><ellipse cx="528.234" cy="173.242" fill="#F8D24E" rx="5.858" ry="6.244"/><ellipse cx="542.88" cy="163.876" fill="#F8D24E" rx="5.858" ry="6.244"/><ellipse cx="556.55" cy="155.551" fill="#F8D24E" rx="5.858" ry="6.244"/><ellipse cx="513.588" cy="200.299" fill="#F8D24E" rx="5.858" ry="6.244"/><ellipse cx="526.282" cy="191.974" fill="#F8D24E" rx="5.858" ry="6.244"/><ellipse cx="540.928" cy="182.608" fill="#F8D24E" rx="5.858" ry="6.244"/><ellipse cx="554.597" cy="174.283" fill="#F8D24E" rx="5.858" ry="6.244"/><ellipse cx="506.753" cy="224.234" fill="#F8D24E" rx="5.858" ry="6.244"/><ellipse cx="519.447" cy="215.909" fill="#F8D24E" rx="5.858" ry="6.244"/><ellipse cx="534.093" cy="206.543" fill="#F8D24E" rx="5.858" ry="6.244"/><ellipse cx="547.763" cy="198.218" fill="#F8D24E" rx="5.858" ry="6.244"/><ellipse cx="503.824" cy="245.047" fill="#F8D24E" rx="5.858" ry="6.244"/><ellipse cx="516.517" cy="236.722" fill="#F8D24E" rx="5.858" ry="6.244"/><ellipse cx="531.163" cy="227.356" fill="#F8D24E" rx="5.858" ry="6.244"/><ellipse cx="544.833" cy="219.031" fill="#F8D24E" rx="5.858" ry="6.244"/><ellipse cx="499.918" cy="266.901" fill="#F8D24E" rx="5.858" ry="6.244"/><ellipse cx="512.612" cy="258.576" fill="#F8D24E" rx="5.858" ry="6.244"/><ellipse cx="527.258" cy="249.21" fill="#F8D24E" rx="5.858" ry="6.244"/><ellipse cx="540.928" cy="240.885" fill="#F8D24E" rx="5.858" ry="6.244"/><ellipse cx="497.965" cy="284.592" fill="#F8D24E" rx="5.858" ry="6.244"/><ellipse cx="510.659" cy="276.267" fill="#F8D24E" rx="5.858" ry="6.244"/><ellipse cx="525.305" cy="266.901" fill="#F8D24E" rx="5.858" ry="6.244"/><ellipse cx="538.975" cy="258.576" fill="#F8D24E" rx="5.858" ry="6.244"/><ellipse cx="496.013" cy="303.324" fill="#F8D24E" rx="5.858" ry="6.244"/><ellipse cx="508.707" cy="294.998" fill="#F8D24E" rx="5.858" ry="6.244"/><ellipse cx="523.353" cy="285.633" fill="#F8D24E" rx="5.858" ry="6.244"/><ellipse cx="537.022" cy="277.307" fill="#F8D24E" rx="5.858" ry="6.244"/><ellipse cx="501.871" cy="318.933" fill="#F8D24E" rx="5.858" ry="6.244"/><ellipse cx="514.564" cy="310.608" fill="#F8D24E" rx="5.858" ry="6.244"/><ellipse cx="529.21" cy="301.242" fill="#F8D24E" rx="5.858" ry="6.244"/><ellipse cx="542.88" cy="292.917" fill="#F8D24E" rx="5.858" ry="6.244"/><ellipse cx="516.518" cy="327.259" fill="#F8D24E" rx="5.858" ry="6.244"/><ellipse cx="529.211" cy="318.933" fill="#F8D24E" rx="5.858" ry="6.244"/><ellipse cx="543.857" cy="309.568" fill="#F8D24E" rx="5.858" ry="6.244"/><ellipse cx="557.526" cy="301.242" fill="#F8D24E" rx="5.858" ry="6.244"/><ellipse cx="533.117" cy="332.462" fill="#F8D24E" rx="5.858" ry="6.244"/><ellipse cx="545.81" cy="324.137" fill="#F8D24E" rx="5.858" ry="6.244"/><ellipse cx="560.456" cy="314.771" fill="#F8D24E" rx="5.858" ry="6.244"/><ellipse cx="574.125" cy="306.446" fill="#F8D24E" rx="5.858" ry="6.244"/><ellipse cx="554.597" cy="333.503" fill="#F8D24E" rx="5.858" ry="6.244"/><ellipse cx="567.291" cy="325.177" fill="#F8D24E" rx="5.858" ry="6.244"/><ellipse cx="581.937" cy="315.811" fill="#F8D24E" rx="5.858" ry="6.244"/><ellipse cx="595.606" cy="307.486" fill="#F8D24E" rx="5.858" ry="6.244"/><ellipse cx="579.984" cy="333.503" fill="#F8D24E" rx="5.858" ry="6.244"/><ellipse cx="592.677" cy="325.177" fill="#F8D24E" rx="5.858" ry="6.244"/><ellipse cx="607.323" cy="315.811" fill="#F8D24E" rx="5.858" ry="6.244"/><ellipse cx="620.993" cy="307.486" fill="#F8D24E" rx="5.858" ry="6.244"/><ellipse cx="601.464" cy="332.462" fill="#F8D24E" rx="5.858" ry="6.244"/><ellipse cx="614.157" cy="324.137" fill="#F8D24E" rx="5.858" ry="6.244"/><ellipse cx="628.804" cy="314.771" fill="#F8D24E" rx="5.858" ry="6.244"/><ellipse cx="642.473" cy="306.446" fill="#F8D24E" rx="5.858" ry="6.244"/><ellipse cx="625.875" cy="331.421" fill="#F8D24E" rx="5.858" ry="6.244"/><ellipse cx="638.568" cy="323.096" fill="#F8D24E" rx="5.858" ry="6.244"/><ellipse cx="653.213" cy="313.73" fill="#F8D24E" rx="5.858" ry="6.244"/><ellipse cx="666.883" cy="305.405" fill="#F8D24E" rx="5.858" ry="6.244"/><ellipse cx="648.332" cy="304.364" fill="#F8D24E" rx="5.858" ry="6.244"/><ellipse cx="661.025" cy="296.039" fill="#F8D24E" rx="5.858" ry="6.244"/><ellipse cx="675.671" cy="286.673" fill="#F8D24E" rx="5.858" ry="6.244"/><ellipse cx="689.341" cy="278.348" fill="#F8D24E" rx="5.858" ry="6.244"/></svg>